<svg width="220" height="48" viewBox="0 0 220 48" fill="none" xmlns="http://www.w3.org/2000/svg">
  <g fill="#EDF5F6">
    <rect x="0" width="3" height="48"/>
    <rect x="7" width="2" height="48"/>
    <rect x="13" width="5" height="48"/>
    <rect x="22" width="2" height="48"/>
    <rect x="29" width="4" height="48"/>
    <rect x="38" width="7" height="48"/>
    <rect x="50" width="2" height="48"/>
    <rect x="57" width="5" height="48"/>
    <rect x="66" width="3" height="48"/>
    <rect x="74" width="8" height="48"/>
    <rect x="87" width="2" height="48"/>
    <rect x="94" width="5" height="48"/>
    <rect x="104" width="3" height="48"/>
    <rect x="112" width="6" height="48"/>
    <rect x="123" width="2" height="48"/>
    <rect x="130" width="8" height="48"/>
    <rect x="143" width="4" height="48"/>
    <rect x="151" width="2" height="48"/>
    <rect x="158" width="6" height="48"/>
    <rect x="169" width="3" height="48"/>
    <rect x="177" width="8" height="48"/>
    <rect x="190" width="2" height="48"/>
    <rect x="197" width="5" height="48"/>
    <rect x="207" width="3" height="48"/>
    <rect x="215" width="5" height="48"/>
  </g>
</svg>
