<svg width="240" height="44" viewBox="0 0 240 44" fill="none" xmlns="http://www.w3.org/2000/svg">
<g fill="#EAF3F5">
<rect x="0" width="3" height="44"/><rect x="7" width="2" height="44"/><rect x="13" width="5" height="44"/>
<rect x="22" width="2" height="44"/><rect x="29" width="4" height="44"/><rect x="38" width="7" height="44"/>
<rect x="50" width="2" height="44"/><rect x="57" width="5" height="44"/><rect x="66" width="3" height="44"/>
<rect x="74" width="8" height="44"/><rect x="87" width="2" height="44"/><rect x="94" width="5" height="44"/>
<rect x="104" width="3" height="44"/><rect x="112" width="6" height="44"/><rect x="123" width="2" height="44"/>
<rect x="130" width="8" height="44"/><rect x="143" width="4" height="44"/><rect x="151" width="2" height="44"/>
<rect x="158" width="6" height="44"/><rect x="169" width="3" height="44"/><rect x="177" width="8" height="44"/>
<rect x="190" width="2" height="44"/><rect x="197" width="5" height="44"/><rect x="207" width="3" height="44"/>
<rect x="215" width="5" height="44"/><rect x="225" width="3" height="44"/><rect x="232" width="8" height="44"/>
</g></svg>