<svg width="950" height="520" viewBox="0 0 950 520" fill="none" xmlns="http://www.w3.org/2000/svg">
  <path d="M70 384C146 154 210 70 298 62c-38 126-73 241-103 366M254 342c104-168 181-238 265-224-30 90-58 178-83 264M426 354c96-190 179-294 260-312-25 105-45 206-61 302M636 342c86-118 155-168 237-166-32 62-76 128-138 198" stroke="#F4F8F9" stroke-width="46" stroke-linecap="round" stroke-linejoin="round"/>
  <path d="M104 160c178 86 346 134 522 140 90 2 172-6 246-24M144 436c208-90 436-116 684-76" stroke="#F4F8F9" stroke-width="33" stroke-linecap="round"/>
</svg>
